<svg width="96" height="96" version="1.0" viewBox="0 0 128 128" xmlns="http://www.w3.org/2000/svg">
<g transform="translate(0 128) scale(.05 -.05)">
<path d="m820 2084c-247-55-370-146-431-319-87-242 14-394 379-572 316-153 386-332 188-479-91-68-402-79-485-17-40 30-193 65-237 54-24-6-33-6-20 0 26 13 13 69-16 69-24 0-11-75 18-104 30-30 31-56 3-56-12 0-16 8-10 18 10 17-69 48-84 33-19-19 228-193 301-212 46-13 99-30 117-40 48-25 362 12 440 52 376 190 337 621-73 816-66 31-151 72-188 90-190 91-239 237-123 368 70 80 341 132 641 123 153-4 405 31 435 60 6 7-41 12-105 12-185 0-117 18 88 24 103 2 174 8 159 13s-31 15-37 21c-20 25-120 61-120 43 0-10-31-17-68-15s-64 11-59 19-110 16-257 17c-146 0-279 3-296 6-16 3-88-8-160-24z" fill="#546e7a"/>
<path d="m1618 2091c-6-5-41-12-79-14s-85-17-104-34c-23-19-35-21-35-6 0 13-13 23-30 23-16 0-30-9-30-20s12-20 28-20c15 0 38-13 52-30 13-16 33-25 42-19 10 6 18 1 18-11 0-13-16-18-38-11-21 7-45 2-54-12-10-16-4-20 19-11 18 7 33 3 33-9s11-17 25-12c43 16 303-26 351-57 25-16 54-24 65-18 59 37 313-289 333-428 59-405-147-693-549-769-251-47-239-62-232 285 3 162 11 310 19 329 37 98-13 553-62 553-14 0-31 32-39 70-14 78-41 93-46 27-2-24-15-51-29-60-16-10-17-17-4-17s23-35 23-80c0-44-7-80-14-80-15 0-15-7-29-718l-10-508 254 12c406 19 609 116 776 370 324 491 22 1187-553 1272-50 7-96 9-101 3z" fill="#1e88e5"/>
</g>
</svg>